<svg viewBox="0 0 500 500" xmlns="http://www.w3.org/2000/svg">
  <!-- Background -->
  <rect x="0" y="0" width="500" height="500" fill="transparent" />

  <!-- Modern abstract PM logo - expanded to fill more space -->
  <g transform="translate(250, 250) scale(1.5)">
    <!-- Main hexagon shape -->
    <path d="M0,-160 L138.6,-80 L138.6,80 L0,160 L-138.6,80 L-138.6,-80 Z"
          fill="#f8f9fa"
          stroke="#4361ee"
          stroke-width="8"
          stroke-linejoin="round" />

    <!-- Inner gradient elements -->
    <defs>
      <linearGradient id="blueGradient" x1="0%" y1="0%" x2="100%" y2="100%">
        <stop offset="0%" style="stop-color:#4361ee;stop-opacity:1" />
        <stop offset="100%" style="stop-color:#3a0ca3;stop-opacity:1" />
      </linearGradient>
      <linearGradient id="greenGradient" x1="0%" y1="0%" x2="100%" y2="100%">
        <stop offset="0%" style="stop-color:#4cc9f0;stop-opacity:1" />
        <stop offset="100%" style="stop-color:#4895ef;stop-opacity:1" />
      </linearGradient>
    </defs>

    <!-- Center overlapping triangles -->
    <path d="M0,0 L0,-120 L104,-60 Z" fill="url(#blueGradient)" opacity="0.85" />
    <path d="M0,0 L104,-60 L104,60 Z" fill="#4895ef" opacity="0.75" />
    <path d="M0,0 L104,60 L0,120 Z" fill="#4cc9f0" opacity="0.75" />
    <path d="M0,0 L0,120 L-104,60 Z" fill="#560bad" opacity="0.75" />
    <path d="M0,0 L-104,60 L-104,-60 Z" fill="#3a0ca3" opacity="0.75" />
    <path d="M0,0 L-104,-60 L0,-120 Z" fill="#7209b7" opacity="0.75" />

    <!-- Central circle -->
    <circle cx="0" cy="0" r="30" fill="#ffffff" />

    <!-- Abstract PM elements -->
    <!-- Sprint cycle with running motion -->
    <path d="M0,0 A20,20 0 1 1 14.14,14.14"
          fill="none"
          stroke="#4361ee"
          stroke-width="6"
          stroke-linecap="round"
          transform="rotate(45)" />

    <!-- Running figure silhouette -->
    <circle cx="0" cy="5" r="5" fill="#3a0ca3" />
    <path d="M-3,-3 L0,-10 L3,-3" stroke="#3a0ca3" stroke-width="3" stroke-linecap="round" stroke-linejoin="round" />
    <path d="M-10,5 L0,5 L10,5" stroke="#3a0ca3" stroke-width="3" stroke-linecap="round" />
    <path d="M-5,12 L0,5 L7,15" stroke="#3a0ca3" stroke-width="3" stroke-linecap="round" stroke-linejoin="round" />

    <!-- Target (OKR) element -->
    <circle cx="-12" cy="-12" r="10" fill="none" stroke="#ffffff" stroke-width="3" />
    <circle cx="-12" cy="-12" r="5" fill="#ffffff" />
  </g>
</svg>